<svg width="300" height="85" viewBox="0 0 141 40" fill="none" xmlns="http://www.w3.org/2000/svg">
  <g clip-path="url(#clip0)">
  <path d="M9.97723 18.3727L9.17961 18.031L3.56152 23.6225L3.87364 24.4509L9.97723 18.3727Z" fill="white"/>
  <path d="M21.1406 23.1598L20.343 22.8181L7.89307 35.2092L8.20518 36.0375L21.1406 23.1598Z" fill="white"/>
  <path d="M11.5726 19.0561L10.7749 18.7144L4.18237 25.2792L4.49102 26.1076L11.5726 19.0561Z" fill="white"/>
  <path d="M14.7631 20.4264L13.9654 20.0847L5.42041 28.5893L5.72906 29.4177L14.7631 20.4264Z" fill="white"/>
  <path d="M16.3583 21.1098L15.5607 20.7681L6.03772 30.246L6.34637 31.0709L16.3583 21.1098Z" fill="white"/>
  <path d="M19.5454 22.4765L18.7477 22.1348L7.27576 33.5559L7.58441 34.3809L19.5454 22.4765Z" fill="white"/>
  <path d="M17.9536 21.7931L17.1559 21.4514L6.65845 31.8993L6.96709 32.7276L17.9536 21.7931Z" fill="white"/>
  <path d="M13.1679 19.7429L12.3702 19.3977L4.79968 26.9324L5.10833 27.7608L13.1679 19.7429Z" fill="white"/>
  <path d="M2.00444 14.9555L1.20681 14.6104L0.46814 15.349L0.776787 16.1739L2.00444 14.9555Z" fill="white"/>
  <path d="M3.59966 15.6388L2.80204 15.2971L1.08887 17.0022L1.39751 17.8306L3.59966 15.6388Z" fill="white"/>
  <path d="M0 14.0925L0.159526 14.5205L0.409218 14.2686L0 14.0925Z" fill="white"/>
  <path d="M6.79028 17.0058L5.99265 16.6641L2.32703 20.3123L2.63567 21.1407L6.79028 17.0058Z" fill="white"/>
  <path d="M5.19506 16.3224L4.39743 15.9807L1.7063 18.6591L2.01495 19.484L5.19506 16.3224Z" fill="white"/>
  <path d="M8.38555 17.6891L7.58792 17.3474L2.94434 21.969L3.25298 22.7974L8.38555 17.6891Z" fill="white"/>
  <path d="M37.2111 32.1478V31.0122L28.1945 39.9897H29.3354L37.2111 32.1478Z" fill="white"/>
  <path d="M33.8993 28.6305L33.1016 28.2888L21.3488 39.9896H22.4897L33.8993 28.6305Z" fill="white"/>
  <path d="M37.2111 34.419V33.2834L30.4763 39.9898H31.6173L37.2111 34.419Z" fill="white"/>
  <path d="M35.4945 29.3176L34.6969 28.9724L23.6306 39.9898H24.7716L35.4945 29.3176Z" fill="white"/>
  <path d="M37.0898 30.0009L36.2922 29.6592L25.9126 39.9897H27.0536L37.0898 30.0009Z" fill="white"/>
  <path d="M37.2112 38.961V37.8254L35.0367 39.9896H36.1812L37.2112 38.961Z" fill="white"/>
  <path d="M37.2111 36.69V35.5544L32.7583 39.9897H33.8993L37.2111 36.69Z" fill="white"/>
  <path d="M29.1134 26.5805L28.3193 26.2388L14.5029 39.9897H15.6439L29.1134 26.5805Z" fill="white"/>
  <path d="M32.3039 27.9472L31.5063 27.6055L19.0668 39.9896H20.2077L32.3039 27.9472Z" fill="white"/>
  <path d="M25.9265 25.2135L25.1288 24.8718L9.93921 39.9896H11.0802L25.9265 25.2135Z" fill="white"/>
  <path d="M24.3311 24.5268L23.5335 24.1851L9.1311 38.5193L9.43975 39.3477L24.3311 24.5268Z" fill="white"/>
  <path d="M27.5217 25.8969L26.724 25.5552L12.2211 39.9896H13.362L27.5217 25.8969Z" fill="white"/>
  <path d="M30.7087 27.2638L29.9111 26.9221L16.7849 39.9897H17.9259L30.7087 27.2638Z" fill="white"/>
  <path d="M22.7359 23.8432L21.9382 23.5015L8.51379 36.8659L8.82244 37.6908L22.7359 23.8432Z" fill="white"/>
  <path d="M20.1211 6.85815L18.238 7.59679L14.2013 11.6144L15.0197 11.9354L20.1211 6.85815Z" fill="white"/>
  <path d="M22.4897 6.77187V5.92969L22.0042 6.11952L15.8381 12.2564L16.6566 12.5774L22.4897 6.77187Z" fill="white"/>
  <path d="M11.094 10.3961L11.746 10.6515L12.5922 9.80933L11.094 10.3961Z" fill="white"/>
  <path d="M16.3549 8.33203L14.4753 9.07066L12.5645 10.9725L13.3829 11.2935L16.3549 8.33203Z" fill="white"/>
  <path d="M22.4896 9.04303V7.90747L17.475 12.8984L18.2934 13.2194L22.4896 9.04303Z" fill="white"/>
  <path d="M22.4897 11.3143V10.1787L19.1119 13.5405L19.9304 13.8615L22.4897 11.3143Z" fill="white"/>
  <path d="M22.4897 14.7209L22.3856 14.8245L22.4897 14.8625V14.7209Z" fill="white"/>
  <path d="M22.4897 13.5853V12.4497L20.7488 14.1824L21.5672 14.5034L22.4897 13.5853Z" fill="white"/>
  <path d="M35.7581 0.310791L33.7987 1.12536L29.2452 5.65724V6.7928L35.7581 0.310791Z" fill="white"/>
  <path d="M37.2111 3.40656V2.271L29.2452 10.1992V11.3348L37.2111 3.40656Z" fill="white"/>
  <path d="M37.2111 5.6778V4.54224L29.2452 12.4704V13.606L37.2111 5.6778Z" fill="white"/>
  <path d="M37.2111 9.08447L29.2452 17.0127V17.2715L29.8729 17.5235L37.2111 10.22V9.08447Z" fill="white"/>
  <path d="M31.8393 1.9397L29.8799 2.75426L29.2452 3.3859V4.52146L31.8393 1.9397Z" fill="white"/>
  <path d="M37.2111 1.13556V0L29.2452 7.92821V9.06377L37.2111 1.13556Z" fill="white"/>
  <path d="M37.2112 17.0333V15.8977L33.934 19.1629L34.7455 19.4873L37.2112 17.0333Z" fill="white"/>
  <path d="M37.2111 7.94904V6.81348L29.2452 14.7417V15.8772L37.2111 7.94904Z" fill="white"/>
  <path d="M37.2111 20.4402L37.1799 20.4713L37.2111 20.4851V20.4402Z" fill="white"/>
  <path d="M37.2111 19.3045V18.1689L35.5569 19.8153L36.3684 20.1432L37.2111 19.3045Z" fill="white"/>
  <path d="M37.2112 14.7623V13.6267L32.3075 18.5072L33.119 18.8351L37.2112 14.7623Z" fill="white"/>
  <path d="M37.2111 12.4913V11.3557L30.6844 17.8515L31.4959 18.1794L37.2111 12.4913Z" fill="white"/>
  <path d="M44.1609 1.81883H41.4386V0.0136719H48.8496V1.81883H46.1273V8.91177H44.1609V1.81883Z" fill="white"/>
  <path d="M50.3546 0.0136719H52.3209V3.53425H55.9519V0.0136719H57.9182V8.91177H55.9519V5.33941H52.3209V8.91177H50.3546V0.0136719Z" fill="white"/>
  <path d="M60.0615 0.0136719H66.8067V1.75325H62.0174V3.55841H66.2345V5.30145H62.0174V7.16873H66.8726V8.91177H60.0615V0.0136719Z" fill="white"/>
  <path d="M47.4139 12.8569H50.2992L56.4028 27.1325H53.1291L51.8252 23.9537H45.8048L44.5043 27.1325H41.3103L47.4139 12.8569ZM50.7084 21.1993L48.815 16.6053L46.9249 21.1993H50.7084Z" fill="white"/>
  <path d="M58.5979 12.9502H65.1073C66.9175 12.9502 68.322 13.4541 69.2688 14.386C69.6794 14.8178 69.9989 15.327 70.2086 15.8837C70.4182 16.4403 70.5137 17.0331 70.4895 17.627V17.665C70.4895 19.9534 69.248 21.3927 67.4377 22.0588L70.9057 27.1223H67.2435L64.1917 22.5869H61.7329V27.1223H58.6118L58.5979 12.9502ZM64.9061 19.8533C66.432 19.8533 67.306 19.0422 67.306 17.8479V17.81C67.306 16.4708 66.3696 15.7839 64.8437 15.7839H61.7225V19.8533H64.9061Z" fill="white"/>
  <path d="M72.6606 20.0846V20.0467C72.6606 16.0153 75.7124 12.7156 80.0855 12.7156C82.7697 12.7156 84.3788 13.6061 85.7001 14.9039L83.706 17.1922C82.6067 16.1982 81.49 15.5907 80.0647 15.5907C77.6648 15.5907 75.9343 17.5754 75.9343 20.0052V20.0467C75.9343 22.4627 77.6232 24.4992 80.0647 24.4992C81.6911 24.4992 82.6899 23.8503 83.8066 22.839L85.8007 24.8443C84.3372 26.4044 82.7107 27.3743 79.9641 27.3743C78.999 27.3898 78.0405 27.2116 77.146 26.8505C76.2515 26.4894 75.4393 25.9527 74.7577 25.2724C74.0761 24.5921 73.5392 23.7821 73.1789 22.8908C72.8186 21.9995 72.6423 21.0452 72.6606 20.0846Z" fill="white"/>
  <path d="M93.1977 12.8569H96.0865L102.19 27.1325H98.9129L97.6124 23.9537H91.592L90.2881 27.1325H87.0941L93.1977 12.8569ZM96.4923 21.1993L94.6022 16.6053L92.7088 21.1993H96.4923Z" fill="white"/>
  <path d="M104.385 12.9502H109.934C114.411 12.9502 117.501 16.0048 117.501 19.9948V20.0362C117.501 24.0228 114.411 27.1223 109.934 27.1223H104.385V12.9502ZM109.934 24.3058C112.497 24.3058 114.227 22.58 114.227 20.0742V20.0362C114.227 17.5235 112.493 15.7632 109.934 15.7632H107.507V24.3058H109.934Z" fill="white"/>
  <path d="M123.567 12.9604H120.435V27.1325H123.567V12.9604Z" fill="white"/>
  <path d="M132.008 12.8569H134.896L140.997 27.1325H137.723L136.422 23.9537H130.399L129.098 27.1325H125.904L132.008 12.8569ZM135.302 21.1993L133.412 16.6053L131.519 21.1993H135.302Z" fill="white"/>
  <path d="M41.6814 35.4197V35.3852C41.6766 34.7741 41.7951 34.1683 42.0298 33.6036C42.2646 33.039 42.6108 32.5269 43.0481 32.0979C43.4853 31.6688 44.0046 31.3315 44.5753 31.1059C45.1459 30.8802 45.7562 30.7709 46.37 30.7843C47.6553 30.7159 48.9159 31.1536 49.8796 32.0027L48.6415 33.4903C48.0123 32.8949 47.1722 32.5711 46.3042 32.5895C44.8754 32.5895 43.7379 33.8458 43.7379 35.3507V35.3852C43.7379 37.0143 44.8615 38.2086 46.4463 38.2086C47.1047 38.2276 47.7524 38.0405 48.2982 37.6736V36.4207H46.3042V34.7294H50.1882V38.5951C49.1285 39.5068 47.7742 40.008 46.3735 40.0068C43.5991 40.0068 41.6744 38.0602 41.6744 35.4266" fill="white"/>
  <path d="M52.092 30.9468H56.1773C57.3148 30.9468 58.1957 31.2643 58.7852 31.8476C59.0425 32.1193 59.2428 32.4394 59.3744 32.789C59.506 33.1387 59.5662 33.5109 59.5516 33.884V33.9082C59.5812 34.5142 59.4093 35.1131 59.0627 35.6122C58.7161 36.1112 58.2139 36.4828 57.6339 36.6694L59.8186 39.8483H57.5194L55.6051 37.0008H54.0584V39.8483H52.092V30.9468ZM56.0525 35.2681C57.0096 35.2681 57.5575 34.7607 57.5575 34.0117V33.9841C57.5575 33.1454 56.9715 32.714 56.0143 32.714H54.0584V35.2681H56.0525Z" fill="white"/>
  <path d="M60.9285 35.4198V35.3853C60.9286 34.7689 61.0532 34.1587 61.2947 33.5911C61.5362 33.0234 61.8899 32.5098 62.3346 32.0807C62.7793 31.6516 63.306 31.3158 63.8836 31.0931C64.4612 30.8704 65.0778 30.7655 65.6969 30.7844C68.4539 30.7844 70.4341 32.8312 70.4341 35.3612V35.3853C70.4344 36.0018 70.3103 36.612 70.0692 37.1798C69.8281 37.7476 69.4748 38.2615 69.0304 38.6909C68.5861 39.1203 68.0595 39.4565 67.4821 39.6796C66.9048 39.9027 66.2882 40.0082 65.6691 39.9897C62.8948 39.9897 60.9285 37.9395 60.9285 35.4095V35.4198ZM68.3776 35.4095V35.3853C68.3902 35.0232 68.3295 34.6623 68.1991 34.3241C68.0687 33.9858 67.8713 33.6771 67.6186 33.4163C67.3659 33.1554 67.0631 32.9479 66.7282 32.8058C66.3933 32.6638 66.0332 32.5903 65.6691 32.5896C65.3088 32.5884 64.9519 32.6597 64.62 32.7992C64.288 32.9388 63.9879 33.1436 63.7375 33.4015C63.4871 33.6595 63.2917 33.9651 63.163 34.3C63.0342 34.635 62.9749 34.9924 62.9884 35.3508V35.3853C62.9759 35.7474 63.0366 36.1083 63.167 36.4466C63.2974 36.7848 63.4948 37.0936 63.7474 37.3544C64.0001 37.6152 64.3029 37.8228 64.6378 37.9648C64.9727 38.1068 65.3329 38.1804 65.6969 38.1811C66.0572 38.1823 66.4141 38.1109 66.746 37.9714C67.078 37.8319 67.3781 37.627 67.6285 37.3691C67.8789 37.1112 68.0744 36.8056 68.2031 36.4706C68.3318 36.1356 68.3912 35.7782 68.3776 35.4198" fill="white"/>
  <path d="M72.0432 36.0309V30.9468H74.0096V35.9826C74.0096 37.4288 74.7378 38.1812 75.9377 38.1812C77.1376 38.1812 77.8694 37.4564 77.8694 36.0447V30.9468H79.8357V35.9688C79.8357 38.6644 78.3167 39.9864 75.9135 39.9864C73.5102 39.9864 72.0432 38.6506 72.0432 36.0309Z" fill="white"/>
  <path d="M81.8401 30.9468H85.4919C87.6247 30.9468 88.9148 32.2066 88.9148 34.0221V34.0497C88.9148 36.1206 87.3056 37.1768 85.2977 37.1768H83.803V39.8449H81.8367L81.8401 30.9468ZM85.3671 35.4338C86.3485 35.4338 86.9242 34.8505 86.9242 34.0877V34.0601C86.9242 33.1834 86.3104 32.714 85.3289 32.714H83.8065V35.4338H85.3671Z" fill="white"/>
  </g>
  <defs>
  <clipPath id="clip0">
  <rect width="141" height="40" fill="white"/>
  </clipPath>
  </defs>
</svg>