<?xml version="1.0" encoding="utf-8"?>
<!-- Generator: Adobe Illustrator 24.0.0, SVG Export Plug-In . SVG Version: 6.00 Build 0)  -->
<svg version="1.1" id="Layer_1" xmlns="http://www.w3.org/2000/svg" xmlns:xlink="http://www.w3.org/1999/xlink" x="0px" y="0px"
	 viewBox="0 0 80 80" style="enable-background:new 0 0 80 80;" xml:space="preserve">
<style type="text/css">
	.st0{fill:#16D5FF;}
	.st1{fill:#16D5FF;fill-opacity:0;}
	.st2{fill:#FFFFFF;}
</style>
<g>
	<path class="st0" d="M31.1,22.5c-9.7,0-17.7,7.8-17.7,17.5s7.9,17.5,17.7,17.5c9.7,0,17.7-7.8,17.7-17.5S40.8,22.5,31.1,22.5z"/>
	<path class="st1" d="M66.7,52.5h-3.6c-0.9,0-1.6,0.7-1.6,1.6c0,0.9,0.7,1.6,1.6,1.6h3.6c0.9,0,1.6-0.7,1.6-1.6
		C68.4,53.3,67.6,52.5,66.7,52.5z"/>
	<path class="st0" d="M59.2,45.5h-5.7c0.4-1.8,0.7-3.6,0.7-5.5c0-3.2-0.7-6.2-1.9-9h5.2c0.9,0,1.6-0.7,1.6-1.6
		c0-0.9-0.7-1.6-1.6-1.6h-6.9c-1.9-3-4.6-5.6-7.7-7.4h2.5c0.9,0,1.6-0.7,1.6-1.6c0-0.9-0.7-1.6-1.6-1.6H31.1
		c-12.7,0-23,10.2-23,22.8c0,12.6,10.3,22.8,23,22.8h25c0.9,0,1.6-0.7,1.6-1.6c0-0.9-0.7-1.6-1.6-1.6H42.8c1.8-1.1,3.5-2.4,4.9-3.9
		h8.1c0.9,0,1.6-0.7,1.6-1.6c0-0.9-0.7-1.6-1.6-1.6h-5.5c0.8-1.2,1.5-2.5,2.1-3.9h6.8c0.9,0,1.6-0.7,1.6-1.6
		C60.8,46.2,60.1,45.5,59.2,45.5z M31.1,59.6c-10.9,0-19.8-8.8-19.8-19.6c0-10.8,8.9-19.6,19.8-19.6c10.9,0,19.8,8.8,19.8,19.6
		C50.9,50.8,42,59.6,31.1,59.6z"/>
	<path class="st1" d="M52.5,20.4H56c0.9,0,1.6-0.7,1.6-1.6c0-0.9-0.7-1.6-1.6-1.6h-3.6c-0.9,0-1.6,0.7-1.6,1.6
		C50.9,19.7,51.6,20.4,52.5,20.4z"/>
	<path class="st1" d="M63.6,31h3.6c0.9,0,1.6-0.7,1.6-1.6c0-0.9-0.7-1.6-1.6-1.6h-3.6c-0.9,0-1.6,0.7-1.6,1.6
		C61.9,30.3,62.7,31,63.6,31z"/>
	<path class="st1" d="M58,40c0,0.9,0.7,1.6,1.6,1.6h7.1c0.9,0,1.6-0.7,1.6-1.6s-0.7-1.6-1.6-1.6h-7.1C58.7,38.4,58,39.1,58,40z"/>
	<path class="st1" d="M70.3,45.5h-3.6c-0.9,0-1.6,0.7-1.6,1.6c0,0.9,0.7,1.6,1.6,1.6h3.6c0.9,0,1.6-0.7,1.6-1.6
		C71.9,46.2,71.2,45.5,70.3,45.5z"/>
</g>
<g>
	<path class="st2" d="M39.5,47c-2,2-4.6,2.9-7.5,2.9c-7.3,0-10.4-5-10.4-10.1c0-5.1,3.3-10.4,10.4-10.4c2.7,0,5.2,1,7.2,3l-2.5,2.4
		c-1.3-1.3-3-1.9-4.7-1.9c-4.7,0-6.8,3.5-6.8,6.8c0,3.3,1.9,6.7,6.8,6.7c1.7,0,3.7-0.7,4.9-2L39.5,47z"/>
</g>
</svg>
